<?xml version="1.0" encoding="utf-8"?>
<!-- Generator: Adobe Illustrator 19.1.0, SVG Export Plug-In . SVG Version: 6.00 Build 0)  -->
<svg version="1.1" id="Layer_1" xmlns="http://www.w3.org/2000/svg" xmlns:xlink="http://www.w3.org/1999/xlink" x="0px" y="0px"
	 viewBox="0 0 291.3 44" enable-background="new 0 0 291.3 44" xml:space="preserve">
<path fill="none" stroke="#616262" stroke-width="3" stroke-miterlimit="10" d="M291.3,43.6"/>
<path fill="none" stroke="#616262" stroke-width="3" stroke-miterlimit="10" d="M0,0.4"/>
<g enable-background="new    ">
	<path fill="#333333" d="M78.6,14c3.2,0,4.9,1.8,4.9,1.8l-0.9,1.4c0,0-1.6-1.5-3.9-1.5c-3,0-5,2.3-5,5.1c0,2.9,2,5.3,5,5.3
		c2.5,0,4.1-1.7,4.1-1.7l1,1.3c0,0-1.8,2.1-5.2,2.1c-4,0-6.9-3.1-6.9-7C71.8,16.9,74.7,14,78.6,14z"/>
	<path fill="#333333" d="M92.3,14c3.9,0,6.9,3,6.9,6.8c0,4-3,7-6.9,7c-3.9,0-6.9-3.1-6.9-7C85.4,16.9,88.4,14,92.3,14z M92.3,26.1
		c2.7,0,4.9-2.3,4.9-5.3c0-2.9-2.2-5.1-4.9-5.1c-2.7,0-5,2.2-5,5.1C87.3,23.8,89.5,26.1,92.3,26.1z"/>
	<path fill="#333333" d="M102.6,14.2h2l3.1,7.3c0.3,0.7,0.7,1.8,0.7,1.8h0c0,0,0.4-1.1,0.7-1.8l3.1-7.3h2l1.1,13.4h-1.9l-0.7-8.5
		c-0.1-0.8,0-2,0-2h0c0,0-0.4,1.2-0.7,2l-2.7,6h-1.7l-2.7-6c-0.3-0.7-0.7-2-0.7-2h0c0,0,0,1.2,0,2l-0.6,8.5h-1.9L102.6,14.2z"/>
	<path fill="#333333" d="M118.3,14.2h4.9c2.5,0,4.2,1.7,4.2,4.2c0,2.5-1.8,4.3-4.2,4.3h-3v5h-1.9V14.2z M122.9,21
		c1.6,0,2.6-1,2.6-2.6c0-1.6-1-2.6-2.6-2.6h-2.7V21H122.9z"/>
	<path fill="#333333" d="M136.1,23.7H131l-1.3,3.9h-1.9l4.8-13.4h2l4.8,13.4h-2L136.1,23.7z M133.5,16c0,0-0.3,1.2-0.5,1.9l-1.5,4.3
		h4.1l-1.5-4.3C133.8,17.2,133.6,16,133.5,16L133.5,16z"/>
	<path fill="#333333" d="M141.3,14.2h1.9l6,8.7c0.5,0.7,1.1,1.9,1.1,1.9h0c0,0-0.1-1.2-0.1-1.9v-8.7h1.9v13.4h-1.8l-6-8.7
		c-0.5-0.7-1.1-2-1.1-2h0c0,0,0.1,1.2,0.1,2v8.7h-1.9V14.2z"/>
	<path fill="#333333" d="M158.5,21.9l-4.5-7.7h2.1l2.5,4.4c0.4,0.7,0.8,1.7,0.8,1.7h0c0,0,0.4-0.9,0.8-1.7l2.5-4.4h2.1l-4.5,7.7v5.7
		h-1.9V21.9z"/>
	<path fill="#333333" d="M171.8,14.2h1.9V26h6v1.6h-7.9V14.2z"/>
	<path fill="#333333" d="M187.5,14c3.9,0,6.9,3,6.9,6.8c0,4-3,7-6.9,7c-3.9,0-6.9-3.1-6.9-7C180.6,16.9,183.6,14,187.5,14z
		 M187.5,26.1c2.7,0,4.9-2.3,4.9-5.3c0-2.9-2.2-5.1-4.9-5.1c-2.7,0-5,2.2-5,5.1C182.5,23.8,184.7,26.1,187.5,26.1z"/>
	<path fill="#333333" d="M203,14c3.2,0,4.9,1.6,4.9,1.6l-1,1.4c0,0-1.5-1.3-3.8-1.3c-3.2,0-5.1,2.3-5.1,5.2c0,3.1,2.1,5.3,4.9,5.3
		c2.3,0,3.8-1.7,3.8-1.7v-1.9h-2.2v-1.6h3.9v6.7h-1.7v-0.8c0-0.3,0-0.6,0-0.6h0c0,0-1.5,1.6-4.1,1.6c-3.6,0-6.6-2.8-6.6-7
		C196.2,17,199.1,14,203,14z"/>
	<path fill="#333333" d="M217.5,14c3.9,0,6.9,3,6.9,6.8c0,4-3,7-6.9,7c-3.9,0-6.9-3.1-6.9-7C210.6,16.9,213.6,14,217.5,14z
		 M217.5,26.1c2.7,0,4.9-2.3,4.9-5.3c0-2.9-2.2-5.1-4.9-5.1c-2.7,0-5,2.2-5,5.1C212.5,23.8,214.8,26.1,217.5,26.1z"/>
</g>
<path fill="none" stroke="#616262" stroke-width="3" stroke-miterlimit="10" d="M291.3,0.4"/>
<path fill="none" stroke="#616262" stroke-width="3" stroke-miterlimit="10" d="M192.8,15"/>
<g>
	<g>
		<polyline fill="none" stroke="#7E7E7E" stroke-width="3" stroke-miterlimit="10" points="289.3,36.5 289.3,42.5 283.3,42.5 		"/>
		
			<line fill="none" stroke="#7E7E7E" stroke-width="3" stroke-miterlimit="10" stroke-dasharray="11.9913,11.9913" x1="271.3" y1="42.5" x2="13.5" y2="42.5"/>
		<polyline fill="none" stroke="#7E7E7E" stroke-width="3" stroke-miterlimit="10" points="7.5,42.5 1.5,42.5 1.5,36.5 		"/>
		
			<line fill="none" stroke="#7E7E7E" stroke-width="3" stroke-miterlimit="10" stroke-dasharray="9.64,9.64" x1="1.5" y1="26.8" x2="1.5" y2="12.4"/>
		<polyline fill="none" stroke="#7E7E7E" stroke-width="3" stroke-miterlimit="10" points="1.5,7.5 1.5,1.5 7.5,1.5 		"/>
		
			<line fill="none" stroke="#7E7E7E" stroke-width="3" stroke-miterlimit="10" stroke-dasharray="11.9913,11.9913" x1="19.5" y1="1.5" x2="277.3" y2="1.5"/>
		<polyline fill="none" stroke="#7E7E7E" stroke-width="3" stroke-miterlimit="10" points="283.3,1.5 289.3,1.5 289.3,7.5 		"/>
		
			<line fill="none" stroke="#7E7E7E" stroke-width="3" stroke-miterlimit="10" stroke-dasharray="9.64,9.64" x1="289.3" y1="17.2" x2="289.3" y2="31.6"/>
	</g>
</g>
</svg>
